<svg width="24" height="24" viewBox="0 0 24 24" fill="none" xmlns="http://www.w3.org/2000/svg">
<path d="M20.887 2.625L20.8858 20.6415C21.2083 21.1723 21.542 21.3764 21.8219 21.375C22.0996 21.3737 22.4297 21.1672 22.746 20.6523L21.8823 11.4502L21.8722 11.3381L21.9413 11.2487C22.9338 9.97519 23.2807 7.77492 22.9976 5.91389C22.856 4.98333 22.5596 4.14108 22.1447 3.54567C21.7967 3.04636 21.3815 2.72784 20.8871 2.625H20.887ZM3.43193 2.62519L3.43118 5.77177L2.84243 5.77102V2.62537H2.17188L2.17198 5.77116H1.58238V2.62537H0.899414V7.46419C0.899367 7.99936 1.19145 8.29612 1.65129 8.47959L1.8416 8.55563L1.83738 8.76047C1.74363 12.7247 1.65096 16.6889 1.55791 20.653C1.87854 21.1777 2.20788 21.3763 2.4821 21.375C2.75632 21.3737 3.08538 21.1698 3.40193 20.6516C3.29337 16.6885 3.18491 12.7253 3.07657 8.76206L3.07095 8.55581L3.26187 8.48053C3.7458 8.28806 4.06057 7.96144 4.06057 7.46447V2.62519H3.43193ZM12.0001 4.45312C9.99851 4.45312 8.07894 5.24824 6.66362 6.66355C5.24831 8.07887 4.4532 9.99844 4.4532 12C4.4532 14.0016 5.24831 15.9211 6.66362 17.3364C8.07894 18.7518 9.99851 19.5469 12.0001 19.5469C14.0016 19.5469 15.9212 18.7518 17.3365 17.3364C18.7518 15.9211 19.5469 14.0016 19.5469 12C19.5469 9.99844 18.7518 8.07887 17.3365 6.66355C15.9212 5.24824 14.0016 4.45313 12.0001 4.45312Z" fill="#5496CC"/>
</svg>
