<svg width="24" height="24" viewBox="0 0 24 24" fill="none" xmlns="http://www.w3.org/2000/svg">
<mask id="mask0_908_181" style="mask-type:luminance" maskUnits="userSpaceOnUse" x="1" y="1" width="22" height="22">
<path d="M17 2.5H4C3.60218 2.5 3.22064 2.65804 2.93934 2.93934C2.65804 3.22064 2.5 3.60218 2.5 4V17C2.5 17.3978 2.65804 17.7794 2.93934 18.0607C3.22064 18.342 3.60218 18.5 4 18.5H17C17.3978 18.5 17.7794 18.342 18.0607 18.0607C18.342 17.7794 18.5 17.3978 18.5 17V4C18.5 3.60218 18.342 3.22064 18.0607 2.93934C17.7794 2.65804 17.3978 2.5 17 2.5Z" fill="white" stroke="white" stroke-width="2" stroke-linejoin="round"/>
<path d="M22 6.50195V21.001C22 21.2662 21.8946 21.5205 21.7071 21.7081C21.5195 21.8956 21.2652 22.001 21 22.001H6.50146" stroke="white" stroke-width="2" stroke-linecap="round" stroke-linejoin="round"/>
<path d="M6.5 10.2429L9.5 13.0054L14.5 7.85938" stroke="black" stroke-width="2" stroke-linecap="round" stroke-linejoin="round"/>
</mask>
<g mask="url(#mask0_908_181)">
<path d="M0 0H24V24H0V0Z" fill="#5496CC"/>
</g>
</svg>
