<svg width="24" height="24" viewBox="0 0 24 24" fill="none" xmlns="http://www.w3.org/2000/svg">
<path d="M17.243 13.0006L13.293 16.9506C13.1975 17.0429 13.1213 17.1532 13.0689 17.2752C13.0165 17.3972 12.9889 17.5285 12.9877 17.6612C12.9866 17.794 13.0119 17.9257 13.0622 18.0486C13.1125 18.1715 13.1867 18.2831 13.2806 18.377C13.3745 18.4709 13.4861 18.5452 13.609 18.5955C13.7319 18.6457 13.8636 18.671 13.9964 18.6699C14.1292 18.6687 14.2604 18.6411 14.3824 18.5887C14.5044 18.5363 14.6148 18.4601 14.707 18.3646L20.364 12.7076C20.5515 12.5201 20.6568 12.2658 20.6568 12.0006C20.6568 11.7355 20.5515 11.4812 20.364 11.2936L14.707 5.63663C14.5184 5.45447 14.2658 5.35368 14.0036 5.35596C13.7414 5.35824 13.4906 5.46341 13.3052 5.64881C13.1198 5.83422 13.0146 6.08504 13.0123 6.34723C13.01 6.60943 13.1108 6.86203 13.293 7.05063L17.243 11.0006L4 11.0006C3.73478 11.0006 3.48043 11.106 3.29289 11.2935C3.10536 11.4811 3 11.7354 3 12.0006C3 12.2659 3.10536 12.5202 3.29289 12.7077C3.48043 12.8953 3.73478 13.0006 4 13.0006L17.243 13.0006Z" fill="white"/>
</svg>
